<svg version="1.1" id="Layer_1" xmlns="http://www.w3.org/2000/svg" xmlns:xlink="http://www.w3.org/1999/xlink" x="0px" y="0px"
	 width="100%" viewBox="0 0 1024 576" enable-background="new 0 0 1024 576" xml:space="preserve">
<path fill="#000000" opacity="1.000000" stroke="none" 
	d="
M327.898621,408.137146 
	C329.278687,396.137939 329.802765,384.515045 331.610138,372.993652 
	C336.577393,341.328918 348.548676,312.572540 366.603912,286.204803 
	C368.702545,283.139954 370.730438,282.661652 374.097748,284.069092 
	C385.460999,288.818542 396.996490,293.156311 408.353638,297.919678 
	C415.191620,300.787598 422.297424,301.645660 429.421051,300.629425 
	C456.358124,296.786530 482.982758,291.569000 507.185516,278.274323 
	C524.232544,268.910309 538.193176,256.113922 549.550964,240.194458 
	C562.768738,221.668030 563.194031,202.282120 555.388611,181.845947 
	C554.771851,180.231033 553.319092,178.799438 553.843201,176.828918 
	C555.348633,176.352173 556.131592,177.419067 556.930664,178.144073 
	C581.842285,200.747040 607.439209,222.653717 631.430603,246.196335 
	C658.612122,272.869415 678.020874,304.734009 687.898804,341.907013 
	C690.592712,352.044922 692.686523,362.333801 693.194580,372.812378 
	C693.417969,377.419220 695.470398,378.154572 699.205872,377.529358 
	C716.326782,374.663971 731.777527,368.173767 744.897400,356.571777 
	C746.494751,355.159241 747.899414,353.423889 751.125671,352.557617 
	C751.456604,369.319031 748.705200,384.706482 737.588989,397.582550 
	C725.746338,411.300140 709.963684,412.911133 693.391907,410.879852 
	C691.911133,413.261505 691.775208,415.620514 691.300720,417.859650 
	C687.087280,437.744507 677.297791,454.437347 662.219849,467.953827 
	C652.353210,476.798706 640.043213,479.830444 627.308777,481.252655 
	C601.915649,484.088684 576.413208,483.472443 550.933655,483.196075 
	C544.612305,483.127502 538.260681,482.509735 532.166931,480.729645 
	C526.062317,478.946381 521.146423,475.248962 517.610291,469.920044 
	C515.974915,467.455688 513.885681,466.342621 510.931946,466.389313 
	C501.106873,466.544586 491.274261,466.079895 481.455322,466.891876 
	C479.155365,467.082062 477.278564,467.391541 476.330139,469.927307 
	C474.086578,475.926147 469.013336,478.056152 463.250732,478.209595 
	C444.766541,478.701813 426.274719,478.938416 407.784424,479.153229 
	C400.855713,479.233734 395.429199,476.405487 392.663239,469.776825 
	C391.360687,466.655273 389.343719,466.420258 386.328278,466.614899 
	C368.057526,467.794281 350.145111,472.459442 331.738464,472.199127 
	C324.222015,472.092804 316.754822,471.293304 309.553955,469.114380 
	C297.852966,465.573730 289.836731,458.218872 287.150055,445.939026 
	C285.909698,440.269806 287.653290,435.261688 291.966766,431.479828 
	C298.130127,426.076111 305.590698,423.726959 313.679596,424.145691 
	C323.848358,424.672150 325.989899,423.196899 327.530029,413.066589 
	C327.754456,411.590332 327.739655,410.077728 327.898621,408.137146 
M446.984894,346.626495 
	C442.607025,338.332428 430.244904,336.435059 423.673370,343.107178 
	C422.089478,344.715302 420.135986,344.907196 418.160706,344.920166 
	C411.003510,344.967194 403.844482,344.964203 396.688629,344.838043 
	C394.393250,344.797607 392.118622,344.574402 390.281525,342.653931 
	C387.041321,339.266602 377.901398,337.838928 373.806274,339.912048 
	C371.550812,341.053894 370.295074,342.960388 370.146210,345.477539 
	C369.998413,347.976471 370.292603,350.431458 370.905853,352.886230 
	C372.757355,360.297638 374.534149,367.728668 376.250061,375.172791 
	C382.890167,403.979309 389.423767,432.810608 396.158844,461.594818 
	C398.076660,469.791077 401.977448,472.749969 410.297333,472.659882 
	C421.606964,472.537415 432.912445,472.070465 444.221832,471.871826 
	C451.376648,471.746124 458.540161,472.003265 465.690918,471.790405 
	C473.065765,471.570892 475.710297,468.271667 474.073883,461.195679 
	C471.118347,448.415741 467.874054,435.702820 464.803864,422.949005 
	C464.183868,420.373383 462.742004,418.499634 460.665619,416.950287 
	C452.445770,410.817169 451.205353,405.343658 456.214081,396.003326 
	C457.572571,393.470001 458.031921,391.036072 457.378204,388.357361 
	C454.039551,374.677460 450.661926,361.007050 446.984894,346.626495 
M654.759827,386.592590 
	C666.374207,392.691406 674.710266,401.766663 679.712280,413.965240 
	C674.563049,361.874451 648.531006,320.365479 613.888000,282.165680 
	C613.123718,284.641235 612.630493,286.044464 612.256653,287.478851 
	C606.563293,309.327148 598.017273,330.083618 588.020203,350.259277 
	C579.506409,367.441345 569.210144,383.304108 552.978821,394.352570 
	C536.832520,405.343048 519.175781,412.927002 500.124878,417.251587 
	C498.051239,417.722290 495.815247,417.875946 494.366974,420.735931 
	C501.218964,430.227081 505.372772,441.607117 512.413269,452.093506 
	C513.287109,449.840698 513.875854,448.466370 514.358887,447.055847 
	C519.855286,431.004608 531.725159,425.594910 547.374756,432.404114 
	C551.469482,434.185669 553.982544,433.280029 557.003601,430.351166 
	C568.607483,419.101410 578.592224,406.313995 590.642517,395.484070 
	C606.604797,381.138275 631.378601,374.130219 654.759827,386.592590 
M623.492371,276.079956 
	C631.323547,266.749969 632.039856,256.282166 625.920898,247.804260 
	C622.406982,242.935654 617.409790,243.240524 612.476685,242.784149 
	C611.494995,245.938522 614.124573,248.418152 614.078491,251.436523 
	C614.030396,254.587173 614.205688,257.745789 614.393921,260.894318 
	C614.611816,264.537598 614.766418,268.199890 615.280945,271.806488 
	C616.005249,276.882782 618.658508,278.423035 623.492371,276.079956 
z"/>
<path fill="#000000" opacity="1.000000" stroke="none" 
	d="
M442.736572,207.192871 
	C443.962036,201.781158 446.048798,197.322876 450.457306,194.358688 
	C456.770325,190.113953 465.242462,190.445831 471.049500,196.559555 
	C480.876129,206.905167 490.277588,217.765244 498.182281,229.651672 
	C504.076324,238.514664 501.164154,250.076080 492.555725,257.389587 
	C484.223572,264.468353 471.415833,265.233215 463.337311,259.140411 
	C462.116516,258.219727 461.098114,257.150513 460.660797,255.641022 
	C458.022369,246.533966 452.740875,238.827454 447.460022,231.166748 
	C442.470734,223.929047 440.272583,216.275986 442.736572,207.192871 
M470.060150,225.537720 
	C470.749481,220.144608 467.336761,215.846649 461.942749,215.314651 
	C456.569916,214.784729 453.719147,217.338898 453.475220,223.138809 
	C454.212738,219.307510 456.547974,217.327957 460.049530,217.163406 
	C463.217316,217.014542 465.964661,218.483551 467.551941,221.268555 
	C469.473816,224.640549 467.740234,227.505829 465.093689,230.455963 
	C467.763702,229.580734 468.771942,227.878448 470.060150,225.537720 
z"/>
<path fill="#000000" opacity="1.000000" stroke="none" 
	d="
M561.144043,145.688049 
	C557.768372,160.478317 550.617493,167.853729 538.326111,169.836060 
	C534.830383,170.399841 532.298462,169.538757 530.205383,166.515503 
	C525.338562,159.485886 519.309387,153.567245 512.280701,148.658325 
	C509.974518,147.047699 508.037109,146.195892 505.044220,147.662811 
	C501.520416,149.389954 497.576416,146.781708 496.800171,142.940399 
	C493.162079,124.936935 507.100464,108.141838 525.203186,108.716141 
	C544.276001,109.321220 560.855469,126.157272 561.144043,145.688049 
z"/>
<path fill="#000000" opacity="1.000000" stroke="none" 
	d="
M393.421539,192.131775 
	C402.577332,195.304108 407.314026,203.893768 406.712097,215.151611 
	C406.407593,220.846786 404.374542,225.837326 401.273682,230.460312 
	C395.526642,239.028381 389.596710,247.459244 386.187225,257.367249 
	C384.994385,260.833618 376.886810,263.590363 371.628357,262.984680 
	C358.212921,261.439545 346.540619,244.690247 354.617737,230.483887 
	C355.682922,228.610367 356.851807,226.773041 358.165466,225.067444 
	C364.460541,216.894348 370.747742,208.713104 377.186829,200.653870 
	C381.216248,195.610641 385.733093,191.189957 393.421539,192.131775 
M382.658691,218.192688 
	C380.303558,220.729874 379.386902,223.585709 380.957092,226.855988 
	C382.312531,229.678940 384.681702,230.996460 388.214325,231.096008 
	C382.614960,227.869812 381.037048,224.127441 383.895203,220.505966 
	C385.530548,218.433914 387.823029,217.544388 390.502808,217.707108 
	C392.989990,217.858139 394.843994,219.185471 396.405853,221.102066 
	C393.434418,214.746918 389.709991,213.866089 382.658691,218.192688 
z"/>
<path fill="#000000" opacity="1.000000" stroke="none" 
	d="
M371.576721,112.202965 
	C378.473755,116.071434 381.743103,122.019676 383.674530,129.034988 
	C384.409485,131.704437 383.965637,133.359131 381.582092,134.898941 
	C368.314545,143.470154 356.684113,153.860855 347.278870,166.609146 
	C345.174316,169.461700 342.863556,169.521027 339.881592,168.258514 
	C330.110779,164.121750 323.424225,151.765198 324.847748,140.218979 
	C326.711243,125.103531 338.071167,112.657188 352.888397,109.356628 
	C359.381348,107.910309 365.440857,109.000610 371.576721,112.202965 
z"/>
<path fill="#000000" opacity="1.000000" stroke="none" 
	d="
M410.837769,268.156433 
	C407.347046,266.506592 403.765411,265.955688 400.952484,263.742645 
	C398.608398,261.898438 396.662170,259.675232 398.139343,256.495819 
	C399.497559,253.572464 402.066803,252.644714 405.242462,253.290649 
	C415.499390,255.376862 425.717133,255.312378 435.957611,252.978073 
	C440.143311,252.023972 443.286072,253.962875 444.505615,258.004700 
	C445.690277,261.931091 442.354095,263.105591 439.666962,264.394379 
	C435.465485,266.409424 431.162659,268.219574 427.010712,270.328979 
	C424.917206,271.392609 423.112244,272.897888 423.316650,275.743317 
	C423.510101,278.436249 425.587189,279.237183 427.504822,280.194580 
	C434.295288,283.584808 440.980316,283.231628 447.567444,279.564636 
	C448.681793,278.944275 449.532288,277.692932 451.544220,278.057861 
	C451.228027,280.931793 449.008148,282.132538 446.962708,283.223389 
	C441.809326,285.971741 436.271851,286.878876 430.499115,285.897919 
	C424.525330,284.882812 418.597565,284.929749 412.611969,285.924744 
	C405.627014,287.085876 399.831146,284.673615 394.133484,279.628326 
	C397.324554,278.238342 398.862976,279.958435 400.451782,280.765503 
	C405.505188,283.332642 410.453430,282.976868 415.333435,280.559021 
	C420.682831,277.908569 420.922455,274.109772 416.009796,270.920502 
	C414.479584,269.927094 412.795959,269.170044 410.837769,268.156433 
z"/>
<path fill="#000000" opacity="1.000000" stroke="none" 
	d="
M422.117737,387.108948 
	C415.000000,387.988831 411.130035,390.987427 410.039612,396.153473 
	C408.887848,401.609833 411.543701,407.013916 417.019501,410.356079 
	C423.008606,414.011536 423.008606,414.011536 423.040344,417.312439 
	C411.369781,416.359039 401.226532,404.006683 403.631622,392.920959 
	C404.684143,388.069611 408.933502,385.042084 413.069641,382.447327 
	C416.249451,380.452576 420.028748,379.291046 421.877563,375.473877 
	C425.762604,376.750824 425.126984,382.006653 429.610352,382.744019 
	C433.908691,383.450958 433.865265,387.911316 434.938263,391.939545 
	C430.135376,390.995850 427.576782,385.604004 422.117737,387.108948 
z"/>
</svg>